<?xml version="1.0" standalone="no"?>
<!DOCTYPE svg PUBLIC "-//W3C//DTD SVG 20010904//EN"
 "http://www.w3.org/TR/2001/REC-SVG-20010904/DTD/svg10.dtd">
<svg version="1.0" xmlns="http://www.w3.org/2000/svg"
 width="1280.000000pt" height="640.000000pt" viewBox="0 0 1280.000000 640.000000"
 preserveAspectRatio="xMidYMid meet">

<g transform="translate(0.000000,640.000000) scale(0.100000,-0.100000)"
fill="#000000" stroke="none">
<path d="M1508 4903 c-2 -348 -6 -527 -13 -526 -186 31 -399 35 -545 9 -274
-48 -521 -169 -666 -329 -133 -145 -226 -349 -266 -588 -21 -123 -15 -386 10
-506 56 -258 167 -461 328 -597 130 -110 364 -202 599 -236 262 -37 658 -16
1165 63 l75 12 3 1613 2 1612 -345 0 -345 0 -2 -527z m-122 -1064 c32 -5 74
-15 92 -20 l32 -11 -2 -556 -3 -557 -50 -13 c-74 -20 -266 -19 -345 1 -188 49
-317 169 -377 352 -22 69 -26 98 -26 205 -1 139 14 212 64 317 35 74 119 168
191 214 106 68 273 95 424 68z"/>
<path d="M2630 5075 l0 -355 340 0 340 0 0 355 0 355 -340 0 -340 0 0 -355z"/>
<path d="M4465 4400 c-216 -29 -449 -87 -627 -157 l-88 -35 0 -264 c0 -145 1
-264 3 -264 2 0 46 18 100 40 247 101 464 150 656 150 128 -1 248 -20 262 -41
30 -46 49 -213 30 -261 -8 -22 -18 -28 -53 -32 -24 -3 -101 -13 -173 -21 -595
-72 -874 -234 -961 -560 -8 -33 -18 -110 -21 -171 -14 -279 91 -486 299 -588
215 -105 511 -120 1153 -57 171 17 328 31 351 31 l41 0 7 833 c7 891 5 929
-43 1057 -63 165 -185 265 -396 321 -66 18 -114 22 -275 25 -107 1 -226 -1
-265 -6z m375 -1554 l0 -234 -67 -13 c-99 -20 -303 -18 -378 5 -81 24 -139 59
-164 100 -29 47 -28 123 3 184 57 112 134 146 406 177 63 7 134 13 158 14 l42
1 0 -234z"/>
<path d="M6690 4399 c-256 -13 -594 -68 -862 -140 l-38 -10 0 -1049 0 -1049
340 -3 340 -3 0 823 0 822 25 10 c104 40 394 58 485 31 67 -20 122 -80 151
-166 l24 -70 3 -722 3 -723 337 0 337 0 0 292 c0 161 4 484 9 718 12 608 -5
740 -115 905 -168 251 -514 362 -1039 334z"/>
<path d="M11460 4395 c-185 -28 -340 -79 -470 -154 -98 -57 -252 -210 -309
-308 -79 -134 -138 -303 -166 -478 -20 -118 -19 -339 0 -451 78 -444 381 -784
793 -890 121 -32 376 -44 526 -25 394 50 662 244 831 603 95 202 128 353 129
583 0 177 -8 236 -51 390 -111 399 -412 659 -848 730 -108 18 -317 18 -435 0z
m363 -583 c44 -22 82 -51 112 -85 223 -253 196 -798 -49 -1013 -75 -65 -140
-87 -246 -81 -211 11 -332 126 -401 382 -31 113 -31 335 0 449 71 267 212 391
432 383 74 -3 96 -8 152 -35z"/>
<path d="M9350 4389 c-433 -43 -756 -174 -966 -391 -206 -212 -305 -461 -321
-803 -24 -527 246 -923 714 -1046 56 -15 122 -22 233 -26 141 -4 165 -2 275
22 174 38 235 48 242 41 13 -13 -36 -283 -61 -341 -53 -118 -138 -190 -284
-238 -248 -82 -709 -30 -991 113 l-61 30 0 -318 0 -319 93 -31 c260 -88 525
-122 796 -102 630 46 1004 335 1127 870 62 273 73 628 40 1370 -10 217 -16
440 -14 495 l3 100 80 -3 81 -3 87 178 c96 198 142 312 130 323 -9 8 -235 42
-428 66 -156 18 -639 27 -775 13z m113 -550 l57 -12 0 -301 c0 -165 3 -412 7
-548 l6 -246 -69 -22 c-43 -14 -106 -24 -169 -27 -262 -14 -435 104 -511 346
-24 75 -29 214 -11 308 66 347 368 566 690 502z"/>
<path d="M2630 3603 c0 -417 -5 -861 -10 -988 -26 -632 -119 -812 -557 -1079
l-112 -68 252 -125 c139 -69 274 -134 300 -144 99 -39 149 -22 333 116 244
184 335 327 394 617 58 280 80 760 80 1706 l0 722 -340 0 -340 0 0 -757z"/>
</g>
</svg>
