<?xml version="1.0" standalone="no"?>
<!DOCTYPE svg PUBLIC "-//W3C//DTD SVG 20010904//EN"
 "http://www.w3.org/TR/2001/REC-SVG-20010904/DTD/svg10.dtd">
<svg version="1.0" xmlns="http://www.w3.org/2000/svg"
 width="840.000000pt" height="1146.000000pt" viewBox="0 0 840.000000 1146.000000"
 preserveAspectRatio="xMidYMid meet">

<g transform="translate(0.000000,1146.000000) scale(0.100000,-0.100000)"
fill="#000000" stroke="none">
<path d="M1965 11028 c-115 -41 -153 -153 -102 -298 13 -36 40 -87 61 -115 65
-84 74 -142 31 -194 -37 -44 -79 -66 -214 -116 -66 -24 -139 -54 -160 -65 -75
-38 -99 -83 -66 -126 19 -25 19 -129 0 -184 -23 -66 -69 -116 -140 -151 -67
-33 -135 -39 -258 -24 -111 14 -216 -39 -263 -133 -24 -48 -26 -57 -15 -93 21
-71 97 -94 210 -65 65 17 201 20 236 7 41 -17 -59 -32 -260 -41 -274 -11 -375
-37 -526 -135 -135 -87 -226 -209 -263 -351 -20 -77 -20 -140 -2 -238 41 -213
45 -625 11 -1196 -19 -323 -19 -585 0 -820 65 -825 247 -1620 540 -2355 35
-88 80 -203 100 -255 93 -244 242 -491 577 -959 217 -304 625 -727 904 -937
264 -200 597 -411 839 -531 359 -180 526 -249 1309 -547 371 -142 965 -284
1436 -346 91 -11 206 -32 256 -46 122 -33 217 -40 424 -31 326 14 465 -13 592
-114 l37 -29 59 19 c90 31 197 35 347 16 162 -21 357 -29 410 -18 37 8 43 14
78 83 34 66 38 82 35 128 -8 99 -68 134 -348 203 -258 64 -357 114 -408 204
-8 15 -14 14 -63 -11 -41 -20 -73 -28 -130 -32 -91 -5 -127 9 -292 111 -130
81 -189 105 -281 117 -125 16 -236 63 -244 104 -6 27 32 61 158 146 121 81
195 151 206 195 14 58 -93 125 -200 125 -117 0 -216 -41 -510 -209 -88 -50
-166 -91 -173 -91 -15 0 -156 73 -273 140 -36 21 -87 50 -115 65 -140 78 -440
285 -620 429 -225 180 -585 561 -775 820 -187 256 -266 403 -478 886 -272 623
-345 890 -372 1359 -35 623 20 1070 269 2186 44 198 94 428 111 510 35 169 69
254 125 308 96 93 199 66 455 -118 227 -164 337 -209 443 -182 27 7 28 9 21
55 -25 175 -156 333 -474 570 -85 64 -176 133 -201 154 -25 20 -74 51 -107 69
-82 41 -134 89 -242 220 -97 116 -163 175 -244 216 -28 14 -52 26 -53 27 -2 1
2 17 7 35 6 22 6 51 -1 84 -18 80 -66 120 -269 222 -228 114 -306 169 -346
247 -13 25 -12 31 17 77 38 61 49 130 26 165 -24 36 -95 65 -260 107 -171 43
-232 71 -264 119 -40 58 -25 128 47 225 116 156 48 334 -152 397 -65 20 -165
23 -213 6z m221 -54 c49 -24 81 -66 95 -129 21 -96 -11 -106 -168 -50 -54 20
-111 35 -128 33 -30 -3 -30 -3 -28 -61 2 -64 -11 -68 -27 -7 -14 52 0 103 42
154 56 69 144 93 214 60z m-56 -663 c0 -10 -25 -21 -48 -21 -15 1 -14 3 2 15
22 17 46 20 46 6z m337 -118 c59 -31 50 -47 -29 -51 -67 -3 -138 16 -138 37 0
5 10 17 23 26 28 21 91 15 144 -12z m163 -440 c33 -37 65 -101 56 -110 -3 -3
-19 6 -36 21 -54 45 -70 32 -70 -55 0 -70 -12 -89 -58 -89 -75 0 -145 72 -196
202 -32 83 -37 184 -12 224 l17 24 134 -90 c73 -50 148 -107 165 -127z m-460
41 c35 -7 99 -83 100 -118 0 -23 -6 -22 -175 39 -125 45 -133 46 -213 41 -76
-5 -143 6 -129 20 18 19 344 32 417 18z m-125 -320 c50 -3 255 -9 456 -13 330
-7 370 -10 405 -27 21 -10 40 -25 42 -32 2 -7 -13 -29 -34 -50 l-37 -37 27
-75 c14 -41 26 -86 26 -99 l0 -24 -26 24 c-14 13 -42 51 -62 84 l-37 60 -6
-45 c-10 -66 -34 -113 -74 -149 -81 -71 -145 -25 -200 146 -29 91 -56 133 -86
133 -25 0 -49 -54 -49 -111 l0 -42 -29 40 c-35 48 -111 98 -197 130 -112 40
-223 55 -443 58 -125 2 -207 7 -214 14 -13 13 3 19 68 24 60 4 345 -1 470 -9z
m-983 -419 c15 -6 15 -10 -3 -48 -34 -77 -20 -133 52 -206 69 -68 166 -121
221 -121 93 0 100 21 33 99 -25 29 -45 59 -45 66 0 18 31 35 64 35 14 0 26 4
26 8 0 4 -27 34 -60 67 -33 33 -60 67 -60 77 0 29 44 32 234 13 145 -15 282
-19 691 -20 545 -2 573 -4 880 -40 300 -37 539 -87 782 -166 139 -45 148 -53
141 -134 -8 -98 -106 -195 -247 -246 -64 -23 -75 -24 -361 -23 -220 0 -329 5
-430 18 -244 31 -454 67 -535 91 -156 45 -248 42 -585 -21 -162 -30 -219 -37
-337 -37 -78 -1 -145 2 -149 5 -3 4 5 21 20 38 50 60 34 73 -106 90 -54 6
-112 16 -130 21 -47 13 -58 11 -58 -10 0 -73 -53 -117 -119 -99 -82 23 -211
160 -226 242 -18 93 13 134 111 145 57 6 58 6 34 22 -166 105 -305 37 -379
-185 -16 -50 -33 -115 -37 -143 -4 -34 -11 -53 -20 -53 -20 0 -56 125 -61 215
-5 69 -2 89 17 133 38 89 111 139 255 176 28 7 367 0 387 -9z m-335 -489 c12
-11 -8 -36 -32 -42 -20 -5 -32 -1 -48 15 -19 19 -20 23 -7 32 14 9 77 6 87 -5z
m3799 -258 c61 -41 94 -90 94 -137 -1 -47 -23 -79 -44 -62 -8 7 -17 25 -21 40
-3 16 -26 50 -51 77 -49 54 -77 98 -67 108 14 13 43 5 89 -26z m-2666 -2 c0
-24 -26 -38 -40 -22 -6 9 -9 20 -5 26 9 15 45 12 45 -4z m846 -95 c77 -44 149
-82 162 -86 39 -11 25 21 -39 90 -50 53 -58 66 -44 71 33 13 368 -5 464 -24
84 -17 98 -18 140 -5 147 46 220 -39 191 -222 -20 -129 -108 -354 -190 -487
-36 -57 -36 -58 -10 -58 24 0 40 -35 40 -90 0 -87 -92 -384 -161 -522 l-29
-58 24 0 c31 0 36 -28 20 -109 -15 -72 -49 -151 -94 -216 l-31 -45 26 0 c29 0
65 -32 65 -58 0 -21 -48 -100 -73 -121 -14 -11 -18 -10 -28 13 -15 33 -29 33
-62 -2 -25 -26 -88 -150 -101 -202 l-7 -25 21 25 c58 70 146 140 177 140 24 0
26 -26 13 -178 -7 -81 -15 -316 -19 -522 -6 -311 -5 -380 6 -403 25 -50 14
-69 -55 -95 -47 -18 -69 -33 -87 -60 -31 -46 -32 -62 -2 -62 29 0 90 -57 117
-110 28 -55 53 -168 47 -213 -7 -48 1 -41 29 26 12 28 27 53 33 55 6 2 17 -11
25 -30 55 -126 80 -176 96 -193 11 -12 35 -78 55 -155 85 -320 150 -503 223
-627 37 -62 68 -132 76 -171 6 -25 4 -30 -15 -35 -19 -5 -21 -10 -15 -47 44
-276 317 -606 704 -850 114 -72 119 -77 141 -130 76 -185 224 -364 354 -428
76 -39 155 -62 210 -62 20 0 37 -4 37 -10 0 -5 -4 -10 -10 -10 -5 0 -14 -9
-20 -20 -25 -48 30 -96 275 -243 241 -144 253 -161 121 -172 -46 -4 -99 -4
-117 0 -49 11 -135 56 -253 134 -57 37 -116 71 -132 75 -36 9 -63 29 -212 154
-246 205 -389 294 -520 321 -76 16 -106 14 -228 -14 -62 -14 -113 -20 -118
-15 -4 4 25 31 68 61 42 29 76 56 76 61 0 11 -97 -26 -173 -66 -82 -43 -133
-47 -164 -13 -11 12 -33 60 -48 107 -15 47 -36 97 -46 111 -26 37 -70 53 -129
46 -28 -3 -50 -2 -50 3 0 4 -27 35 -61 69 -34 33 -59 66 -57 73 2 7 21 22 43
32 l38 19 -37 19 c-21 11 -36 23 -34 27 2 4 27 28 57 52 30 24 56 49 58 55 2
7 -55 34 -134 64 -225 85 -360 158 -430 232 -26 28 -73 142 -73 178 0 23 31
38 60 30 30 -9 198 -95 213 -110 5 -4 -12 -11 -36 -14 -84 -13 -86 -53 -5
-118 83 -68 210 -118 300 -118 51 0 56 4 34 29 -8 9 -54 95 -103 191 -127 253
-162 301 -352 490 -155 154 -258 246 -572 509 -131 110 -202 180 -250 245 -93
125 69 30 238 -140 144 -145 216 -187 278 -164 72 27 71 170 -3 315 -42 83
-71 115 -136 144 -72 32 -133 96 -202 209 -26 42 -59 93 -75 113 l-29 36 58
-13 c197 -47 290 26 251 196 -9 41 -149 332 -170 354 -19 20 -20 -6 -5 -108
21 -142 21 -235 0 -243 -33 -12 -46 21 -55 143 -11 140 -29 185 -97 245 -45
40 -89 67 -95 58 -1 -2 -17 -35 -36 -72 -43 -87 -62 -87 -75 1 l-10 62 -59 0
c-53 0 -62 3 -87 30 -43 46 -53 133 -24 221 33 100 11 180 -88 327 -56 82 -98
167 -98 197 0 16 8 12 43 -22 137 -133 264 -140 261 -14 -2 43 -51 191 -91
271 -23 46 -61 51 -111 17 -51 -35 -160 -79 -186 -75 -46 7 -30 93 54 290 17
39 28 73 26 75 -2 3 -13 0 -24 -6 -12 -6 -34 -11 -51 -11 -44 0 -58 -28 -82
-161 -11 -63 -24 -118 -29 -123 -6 -6 -26 -1 -53 12 -62 31 -91 32 -95 5 -4
-26 19 -72 113 -228 40 -66 82 -140 95 -164 l22 -44 -27 22 c-36 28 -59 27
-120 -6 -103 -53 -132 -15 -139 182 -6 185 -38 262 -136 328 l-51 35 35 6 c53
10 80 37 79 78 -1 46 -29 98 -102 188 -33 41 -61 78 -61 82 0 4 10 13 23 19
12 7 63 38 113 70 122 79 164 78 205 -3 18 -35 59 -143 59 -155 0 -2 -18 0
-40 3 -34 6 -43 3 -69 -23 -36 -37 -48 -99 -32 -174 21 -97 57 -148 95 -133 9
4 35 67 67 162 46 142 51 164 47 224 -7 94 -52 165 -152 242 -42 32 -52 35
-90 30 -39 -6 -45 -3 -69 25 -44 53 -61 157 -34 211 10 20 20 25 47 24 19 0
42 -4 51 -8 12 -5 19 3 29 33 7 22 26 53 42 68 26 25 37 28 96 28 37 0 102 -7
145 -15 76 -14 79 -14 95 6 10 11 30 28 45 38 49 30 52 56 22 203 -37 176 -29
223 45 253 24 10 33 8 67 -14 57 -37 121 -49 228 -44 78 4 104 10 152 34 72
37 84 54 61 95 -18 30 -18 30 5 23 12 -4 56 -20 97 -35 41 -16 92 -29 114 -29
34 0 45 6 80 44 23 25 44 45 47 45 4 1 69 -35 145 -78z m-1333 -55 c115 -40
153 -61 180 -98 26 -35 13 -68 -36 -91 -40 -19 -138 -23 -170 -6 -33 17 -77
61 -77 76 0 24 25 24 93 -2 37 -14 70 -25 73 -25 13 0 -14 25 -102 95 -52 42
-94 78 -94 80 0 12 44 2 133 -29z m-335 -33 c14 -11 27 -24 29 -30 6 -18 -37
-52 -73 -59 -28 -5 -37 -2 -58 22 -33 38 -41 61 -25 81 17 20 92 12 127 -14z
m-528 -34 c0 -10 -7 -19 -15 -19 -15 0 -21 31 -9 43 11 10 24 -3 24 -24z
m-110 -49 c0 -11 -7 -20 -15 -20 -17 0 -18 2 -9 24 9 23 24 20 24 -4z m764
-76 c21 -8 21 -43 0 -51 -16 -6 -65 24 -72 45 -4 13 44 17 72 6z m-126 -57 c4
-32 -17 -44 -47 -27 -27 14 -27 34 2 48 31 15 41 10 45 -21z m458 -72 c-7 -18
-26 -20 -26 -2 0 18 24 41 28 27 2 -6 1 -17 -2 -25z m-606 -107 c67 -42 82
-64 56 -84 -11 -8 -26 -14 -34 -14 -18 0 -122 99 -122 116 0 24 44 15 100 -18z
m-370 -66 c11 -42 12 -79 2 -104 -6 -13 -10 -14 -22 -5 -48 37 -68 126 -33
145 26 15 42 4 53 -36z m298 -63 c44 -15 82 -105 52 -124 -23 -14 -130 65
-130 95 0 11 8 24 18 29 22 13 23 13 60 0z m-71 -138 c29 -19 51 -56 39 -68
-8 -9 -86 57 -86 73 0 19 9 18 47 -5z m-216 -198 c46 -191 56 -473 18 -473
-14 0 -42 49 -55 98 -12 44 -13 45 -13 14 -1 -18 6 -49 14 -69 31 -73 46 -172
55 -348 6 -120 16 -208 30 -264 11 -46 18 -86 16 -88 -8 -9 -59 81 -87 152
-34 88 -55 190 -74 358 -25 223 -37 309 -56 392 -20 86 -26 265 -9 265 26 0
100 -224 100 -303 0 -17 3 -27 6 -24 4 4 6 88 5 187 -1 100 1 186 5 192 12 19
26 -9 45 -89z m389 -13 c0 -5 -4 -10 -10 -10 -5 0 -10 5 -10 10 0 6 5 10 10
10 6 0 10 -4 10 -10z m80 -451 c11 -6 8 -9 -13 -14 -27 -7 -57 7 -57 26 0 10
44 2 70 -12z m38 -225 c35 -15 36 -16 18 -30 -11 -8 -33 -14 -49 -14 -29 0
-87 34 -87 51 0 15 77 10 118 -7z m452 -189 c0 -37 -18 -47 -40 -20 -16 19 -3
55 21 55 15 0 19 -7 19 -35z m-1036 -123 c29 -95 52 -230 61 -342 11 -142 33
-219 136 -462 74 -175 99 -257 99 -323 0 -37 5 -57 17 -66 29 -25 93 -131 109
-183 9 -30 19 -120 24 -216 6 -110 15 -181 26 -214 20 -58 89 -130 132 -139
35 -7 44 -26 78 -164 41 -168 81 -230 160 -249 44 -10 47 -15 24 -31 -31 -22
-22 -62 34 -159 25 -44 52 -97 61 -120 12 -31 24 -43 53 -54 82 -29 221 -215
225 -301 2 -40 0 -44 -23 -47 -26 -3 -119 48 -185 101 -53 42 -105 119 -178
260 -36 70 -81 146 -100 170 -173 215 -304 515 -403 926 -51 210 -50 204 -172
586 -155 481 -205 703 -237 1062 -12 130 15 114 59 -35z m1316 48 c8 -5 11
-12 8 -16 -10 -9 -38 3 -38 16 0 12 10 13 30 0z m-136 -210 c38 -14 50 -71 37
-178 -21 -172 -11 -260 34 -306 10 -10 31 -56 47 -102 44 -132 35 -174 -30
-140 -16 8 -99 81 -183 162 -85 80 -194 178 -244 218 -109 88 -124 104 -105
116 11 7 10 15 -3 47 -23 59 -31 127 -17 153 10 18 18 21 46 17 36 -6 73 -31
169 -113 89 -76 136 -104 172 -104 45 0 57 27 49 109 -4 36 -9 81 -12 99 -7
35 -1 38 40 22z m-507 -326 c9 -25 -11 -37 -40 -23 -15 7 -27 15 -27 19 0 24
58 28 67 4z m-95 -254 c27 -21 58 -77 58 -106 0 -16 -2 -16 -21 2 -31 27 -79
95 -79 111 0 18 13 16 42 -7z m168 -237 c45 -32 99 -108 85 -121 -8 -8 -125
111 -125 127 0 15 12 14 40 -6z m463 -14 c35 -18 282 -172 296 -185 14 -12
-26 -27 -89 -34 -42 -5 -79 -14 -88 -23 -14 -14 -13 -19 3 -44 10 -15 32 -40
48 -55 35 -32 29 -34 -39 -13 -96 29 -97 16 -9 -90 36 -43 65 -80 65 -82 0 -2
-7 -11 -15 -19 -18 -18 -10 -42 42 -126 41 -66 48 -115 20 -145 -15 -18 -14
-22 24 -80 23 -34 39 -69 37 -79 -4 -23 -101 57 -194 162 -38 42 -100 107
-139 143 -185 173 -244 245 -221 268 3 3 31 -16 62 -43 75 -65 104 -87 109
-82 6 6 -73 132 -135 217 -27 36 -47 67 -45 69 2 2 18 -4 35 -13 57 -29 59 -5
7 84 -44 76 -57 111 -39 111 4 0 24 -9 45 -20 44 -24 61 -18 54 18 -5 28 1 52
13 52 5 0 31 -18 59 -40 55 -44 62 -42 31 5 -42 64 -15 83 63 44z m-687 -126
c9 -24 14 -46 12 -49 -8 -7 -78 106 -78 125 0 26 48 -29 66 -76z m1209 22 c26
-26 34 -75 12 -75 -15 0 -77 44 -89 62 -27 44 37 54 77 13z m-518 -821 c53
-31 61 -44 27 -44 -23 0 -124 63 -124 77 0 10 55 -9 97 -33z m679 21 c10 -26
0 -37 -20 -22 -11 8 -16 19 -12 25 10 16 26 15 32 -3z m-749 -70 c3 -9 3 -18
1 -21 -9 -9 -38 8 -38 22 0 19 29 18 37 -1z m260 -91 c38 -29 42 -44 13 -44
-20 0 -100 65 -100 81 0 13 50 -9 87 -37z m641 -18 c-3 -15 -5 -15 -22 -3 -13
9 -17 20 -12 32 6 17 8 17 22 3 9 -9 14 -23 12 -32z m-372 -20 c70 -52 140
-123 131 -132 -12 -12 -169 90 -193 126 -45 66 -21 68 62 6z m-465 19 c90 -32
197 -95 304 -181 22 -18 69 -52 104 -76 80 -54 99 -79 76 -102 -36 -35 -212
-8 -327 50 -27 14 -69 42 -91 63 -23 21 -56 45 -73 54 -36 18 -91 98 -100 145
-12 60 25 76 107 47z m618 -261 c34 -26 85 -73 114 -106 29 -32 75 -72 102
-87 61 -35 89 -65 81 -86 -17 -47 -258 87 -286 159 -4 12 -24 41 -44 65 -21
25 -44 57 -52 73 -14 26 -13 28 5 28 10 0 47 -21 80 -46z m240 -48 c56 -21
137 -75 152 -103 8 -14 50 -43 100 -69 80 -41 118 -74 86 -74 -66 0 -241 85
-307 149 -25 24 -62 55 -82 68 -21 14 -38 30 -38 34 0 14 43 11 89 -5z m-743
-102 c25 -17 51 -54 37 -54 -4 0 -26 16 -48 35 -41 35 -34 48 11 19z m414
-139 c7 -9 10 -18 7 -21 -7 -8 -47 14 -47 26 0 15 26 12 40 -5z m306 -74 c74
-52 121 -97 111 -107 -22 -23 -140 45 -181 104 -48 70 -25 71 70 3z m-99 -200
c62 -42 183 -161 183 -181 0 -42 -208 97 -241 161 -36 71 -25 75 58 20z m-187
1 c24 -20 20 -42 -7 -42 -18 0 -73 38 -73 51 0 16 57 10 80 -9z m445 -78 c16
-17 16 -35 -1 -41 -5 -2 -25 10 -44 27 l-35 29 32 1 c17 0 39 -7 48 -16z
m1245 -24 c0 -25 -4 -30 -23 -30 -13 0 -28 5 -35 12 -17 17 4 48 33 48 21 0
25 -5 25 -30z m-1795 -129 c0 -25 -49 -34 -90 -17 -51 22 -35 38 33 34 41 -2
57 -7 57 -17z m1913 -87 c25 -17 30 -44 8 -44 -22 0 -60 35 -52 48 9 16 17 15
44 -4z m-1490 -36 c33 -17 38 -34 11 -41 -23 -6 -99 35 -99 54 0 13 49 6 88
-13z m-573 -31 c13 -10 15 -16 6 -21 -12 -8 -41 10 -41 25 0 13 13 11 35 -4z
m265 -22 c0 -8 -4 -15 -9 -15 -13 0 -22 16 -14 24 11 11 23 6 23 -9z m506 -61
c36 -17 55 -57 36 -76 -8 -8 -24 -3 -56 16 -91 53 -74 105 20 60z m1401 -10
c-9 -9 -28 6 -21 18 4 6 10 6 17 -1 6 -6 8 -13 4 -17z m-2091 -75 c32 -23 114
-97 181 -164 149 -149 272 -253 643 -543 157 -122 310 -242 340 -266 77 -62
565 -287 785 -363 100 -34 256 -71 330 -79 53 -6 73 -13 115 -45 97 -73 202
-112 455 -170 166 -37 255 -68 335 -115 107 -63 93 -66 -123 -30 -359 61 -710
178 -1227 409 -667 297 -859 393 -1065 530 -178 119 -565 428 -714 571 -101
98 -241 252 -241 266 0 25 32 0 164 -128 186 -182 436 -392 468 -392 20 0 -36
63 -105 118 -137 108 -427 404 -427 434 0 17 29 6 86 -33z m94 21 c0 -13 -7
-20 -20 -20 -19 0 -27 20 -13 33 13 14 33 6 33 -13z m269 -146 c13 -12 12 -16
-4 -34 -24 -27 -39 -25 -65 7 -20 26 -20 28 -4 40 20 14 51 9 73 -13z m884
-15 c63 -17 40 -48 -36 -49 -29 0 -87 34 -87 51 0 12 76 11 123 -2z m-152
-110 c44 -17 78 -33 76 -36 -7 -7 -107 25 -147 47 -53 29 -19 24 71 -11z
m-393 -255 c25 -17 29 -42 7 -50 -19 -8 -85 33 -85 52 0 19 50 18 78 -2z m352
-246 c80 -45 197 -108 260 -141 155 -80 248 -152 225 -175 -12 -13 -205 71
-331 144 -133 76 -351 253 -314 254 8 0 80 -37 160 -82z m1800 13 c0 -12 -21
-19 -37 -13 -22 8 -14 22 12 22 14 0 25 -4 25 -9z m-860 -40 c0 -5 -8 -17 -17
-27 -20 -20 -32 -1 -13 21 14 17 30 20 30 6z m220 -19 c0 -14 -69 -42 -102
-42 -44 0 -24 18 38 35 61 17 64 17 64 7z m225 -39 c13 -12 15 -27 10 -62 -12
-90 -23 -110 -76 -136 -26 -14 -59 -25 -72 -25 -21 0 -25 6 -30 45 -2 26 -7
49 -11 52 -3 4 -30 -2 -60 -12 -84 -28 -110 -5 -61 53 21 25 99 64 195 95 34
12 89 6 105 -10z m-755 -11 c0 -15 -25 -40 -47 -47 -28 -8 -31 10 -6 37 16 18
53 25 53 10z m120 -88 c0 -17 -22 -14 -28 4 -2 7 3 12 12 12 9 0 16 -7 16 -16z
m2870 -33 c0 -38 -10 -51 -31 -40 -23 12 -24 23 -3 43 21 21 34 20 34 -3z
m-1992 -34 c3 -13 -15 -26 -74 -54 -43 -19 -92 -36 -109 -37 -26 -1 -30 3 -33
27 -7 57 49 87 153 84 49 -2 60 -5 63 -20z m1549 -54 c2 -6 -8 -19 -22 -29
-25 -16 -27 -16 -47 3 -11 12 -17 26 -13 33 9 14 77 9 82 -7z m-1607 -84 c-6
-10 -30 -30 -54 -44 -38 -22 -47 -24 -70 -14 -14 7 -26 18 -26 25 0 20 41 44
91 53 57 10 72 5 59 -20z m218 -26 c-6 -33 -138 -82 -138 -51 0 16 36 52 60
61 8 3 30 6 48 6 27 1 33 -3 30 -16z m36 -102 c7 -11 -19 -33 -63 -56 -36 -18
-55 -10 -49 21 5 28 99 57 112 35z m-374 -11 c0 -5 -7 -10 -15 -10 -8 0 -15 5
-15 10 0 6 7 10 15 10 8 0 15 -4 15 -10z m540 -18 c0 -15 -70 -42 -107 -42
-49 0 -32 18 34 36 58 15 73 17 73 6z m135 -62 c8 -13 -109 -69 -159 -77 -36
-6 -46 6 -28 33 24 37 170 71 187 44z m908 -34 c56 -18 188 -72 292 -118 105
-47 212 -93 238 -103 44 -17 47 -20 32 -34 -12 -12 -35 -16 -93 -15 -85 1
-122 11 -384 112 -87 33 -190 68 -230 77 -40 9 -93 25 -120 37 -42 18 -46 22
-37 40 31 57 139 59 302 4z m787 -300 c0 -24 -25 -47 -43 -40 -24 9 -21 39 6
51 25 12 37 8 37 -11z m460 -111 c0 -21 -5 -25 -30 -25 -34 0 -37 6 -13 32 23
26 43 23 43 -7z m-1873 -31 c2 -6 -8 -16 -22 -22 -21 -10 -30 -9 -50 4 -14 9
-25 21 -25 26 0 13 93 6 97 -8z m2170 -79 c112 -24 282 -75 311 -94 44 -27
-98 -15 -278 25 -110 25 -163 47 -190 79 -18 22 16 20 157 -10z"/>
<path d="M2293 8940 c-121 -26 -97 -56 37 -47 99 7 146 -3 192 -41 29 -25 39
-27 119 -27 93 0 103 3 93 28 -19 50 -329 111 -441 87z"/>
<path d="M3207 8924 c-25 -25 -57 -100 -57 -134 0 -24 121 -84 153 -76 24 6
47 42 47 75 0 38 -33 112 -62 136 -37 31 -49 31 -81 -1z"/>
<path d="M1708 8923 c-24 -6 -23 -20 2 -28 27 -9 60 3 60 21 0 14 -26 17 -62
7z"/>
<path d="M1876 8881 c-17 -18 -16 -21 9 -60 27 -41 61 -59 120 -63 63 -4 71
23 24 77 -56 64 -120 83 -153 46z"/>
<path d="M2141 8886 c-9 -10 -9 -16 -1 -21 12 -7 40 11 40 26 0 14 -26 10 -39
-5z"/>
<path d="M1679 8815 c-14 -8 -34 -26 -43 -40 -16 -25 -16 -25 22 -40 22 -9 69
-47 107 -86 101 -104 125 -111 125 -38 0 69 -63 174 -122 205 -34 17 -56 17
-89 -1z"/>
<path d="M3524 8798 c-48 -10 -124 -71 -124 -99 0 -30 29 -22 43 13 13 31 15
32 68 29 66 -3 112 12 107 36 -4 22 -44 31 -94 21z"/>
<path d="M3480 8199 c0 -5 5 -7 10 -4 6 3 10 8 10 11 0 2 -4 4 -10 4 -5 0 -10
-5 -10 -11z"/>
<path d="M1966 8002 c-3 -6 -1 -14 5 -17 15 -10 25 3 12 16 -7 7 -13 7 -17 1z"/>
<path d="M3312 7884 c-61 -42 -162 -221 -184 -325 -10 -49 -9 -60 8 -95 24
-50 48 -53 101 -15 66 48 212 285 190 308 -11 10 -47 -28 -69 -72 -27 -52 -87
-135 -99 -135 -27 0 11 108 69 193 31 45 47 105 37 137 -8 24 -23 25 -53 4z"/>
<path d="M2031 7765 c-1 -59 -6 -100 -16 -119 -15 -27 -14 -31 8 -65 34 -51
146 -161 164 -161 17 0 11 27 -18 74 -26 42 -24 54 8 58 14 2 28 8 30 14 2 6
-28 46 -67 89 -56 61 -74 89 -89 138 l-19 62 -1 -90z"/>
<path d="M2248 7746 c-22 -16 -22 -29 -3 -66 31 -60 82 -17 59 49 -11 30 -32
36 -56 17z"/>
<path d="M1850 7532 c0 -13 40 -46 93 -77 26 -15 55 -37 65 -49 19 -24 124
-106 160 -125 51 -27 32 4 -51 85 -103 98 -267 201 -267 166z"/>
<path d="M1737 7508 c-5 -16 20 -114 39 -150 8 -15 51 -53 97 -83 45 -31 105
-74 132 -95 44 -35 85 -51 85 -35 0 14 -36 75 -75 126 -132 177 -261 287 -278
237z"/>
<path d="M1560 7453 c0 -10 27 -65 60 -123 33 -58 60 -107 60 -111 0 -8 102
-59 118 -59 15 0 16 35 0 63 -35 66 -202 247 -228 247 -5 0 -10 -8 -10 -17z"/>
<path d="M1516 7305 c13 -42 24 -82 24 -90 0 -30 -28 -13 -84 50 -56 64 -76
77 -76 53 0 -18 128 -279 147 -300 9 -11 30 -18 50 -18 108 0 129 195 27 264
-19 12 -50 44 -69 69 -20 26 -37 47 -39 47 -2 0 7 -34 20 -75z"/>
<path d="M2940 7313 c0 -13 5 -23 10 -23 13 0 13 11 0 30 -8 12 -10 11 -10 -7z"/>
<path d="M2955 7135 c4 -33 11 -67 17 -75 6 -10 7 4 3 44 -3 32 -10 66 -16 75
-7 11 -8 -1 -4 -44z"/>
<path d="M1721 7051 c-12 -8 -13 -12 -2 -25 11 -12 17 -14 27 -5 31 25 9 51
-25 30z"/>
<path d="M1826 7008 c6 -41 28 -78 46 -78 4 0 8 8 8 18 -1 26 -37 102 -50 102
-6 0 -8 -15 -4 -42z"/>
<path d="M1968 6878 c-18 -46 -30 -201 -24 -303 11 -178 43 -297 83 -312 9 -4
29 1 45 10 51 29 73 20 114 -49 9 -15 11 -10 11 29 1 55 15 77 50 77 13 0 26
7 30 15 18 49 -173 455 -214 455 -13 0 -14 -9 -9 -57 14 -130 18 -278 7 -268
-17 16 -50 157 -69 296 -10 70 -21 116 -24 107z"/>
<path d="M1666 6791 c-15 -32 -16 -43 -6 -62 12 -22 13 -22 26 -4 15 20 19
105 6 105 -5 0 -17 -17 -26 -39z"/>
<path d="M2523 6775 c-23 -81 -24 -97 -11 -93 16 6 30 61 26 102 l-4 31 -11
-40z"/>
<path d="M2710 6673 c-41 -65 -80 -191 -87 -283 -5 -63 -2 -84 15 -122 11 -25
23 -64 27 -86 14 -87 53 -92 106 -16 44 64 56 104 35 116 -22 13 -20 47 9 124
35 94 34 121 -7 132 l-33 8 3 66 c7 118 -18 140 -68 61z"/>
<path d="M1833 6665 c-19 -13 -20 -19 -11 -53 5 -20 17 -45 26 -55 16 -17 17
-17 29 -1 16 22 17 96 1 112 -15 15 -19 15 -45 -3z"/>
<path d="M3036 6597 c-14 -32 -26 -70 -26 -85 1 -26 1 -26 16 -7 18 25 47 121
41 138 -3 6 -16 -14 -31 -46z"/>
<path d="M3109 6558 c-12 -23 -32 -71 -45 -107 l-24 -66 25 30 c29 35 85 145
85 169 0 29 -19 17 -41 -26z"/>
<path d="M3056 6076 c-18 -28 -20 -36 -8 -36 10 0 35 50 29 57 -2 2 -12 -8
-21 -21z"/>
<path d="M3052 5852 c-7 -13 -12 -33 -10 -45 l3 -22 13 23 c7 13 12 33 10 45
l-3 22 -13 -23z"/>
<path d="M1990 5725 c0 -24 5 -35 14 -35 27 0 27 54 0 64 -10 4 -14 -4 -14
-29z"/>
<path d="M2330 5604 c0 -12 7 -27 15 -34 19 -16 19 -3 0 30 -13 24 -14 24 -15
4z"/>
<path d="M3009 5293 c-13 -32 -6 -172 9 -199 9 -15 12 -14 27 16 26 50 31 139
11 178 -20 39 -33 40 -47 5z"/>
<path d="M3038 4743 c-12 -21 -13 -34 -6 -53 l9 -25 14 25 c31 58 15 108 -17
53z"/>
<path d="M3214 4295 c7 -64 19 -85 47 -85 26 0 25 35 -3 90 -35 68 -53 66 -44
-5z"/>
<path d="M3307 4047 c-4 -10 -7 -28 -6 -40 0 -21 1 -21 10 2 5 14 8 32 7 40
-3 13 -5 13 -11 -2z"/>
<path d="M3356 3905 c-19 -51 7 -175 57 -269 48 -90 61 -87 55 15 -4 70 -11
99 -44 173 -40 91 -57 110 -68 81z"/>
<path d="M4445 2450 c3 -5 10 -10 16 -10 5 0 9 5 9 10 0 6 -7 10 -16 10 -8 0
-12 -4 -9 -10z"/>
<path d="M788 4805 c-8 -8 2 -45 13 -45 10 0 10 8 0 33 -3 10 -9 15 -13 12z"/>
</g>
</svg>
